<?xml version="1.0" encoding="UTF-8"?>
<svg width="24px" height="13px" viewBox="0 0 24 13" version="1.1" xmlns="http://www.w3.org/2000/svg"
>
    <!-- Generator: Sketch 52.1 (67048) - http://www.bohemiancoding.com/sketch -->
    <title>Shape</title>
    <desc>Created with Sketch.</desc>
    <g id="Page-1" stroke="none" stroke-width="1" fill="none" fill-rule="evenodd">
        <g id="honeycomb_groups2_public" transform="translate(-337.000000, -237.000000)" fill="#2DCBBF">
            <g id="Group-2" transform="translate(337.000000, 235.000000)">
                <path d="M6.4530902,15 C6.94789943,14.9995703 7.39379351,14.7051136 7.58308993,14.2537779 C7.77238635,13.8024423 7.66785918,13.2829846 7.31819366,12.937351 L4.10262042,9.76280537 L22.775797,9.76280537 C23.4519056,9.76280537 24,9.22170416 24,8.55422199 C24,7.88673982 23.4519056,7.34563861 22.775797,7.34563861 L3.83329576,7.34563861 L7.27738689,4.20332183 C7.66963925,3.93606354 7.86912299,3.46835342 7.78866031,3.00458881 C7.70819762,2.5408242 7.36241675,2.16531826 6.90242987,2.04217351 C6.44244298,1.91902876 5.95187643,2.07063312 5.64511621,2.43073288 L0.340236501,7.26506639 C-0.113412167,7.9092827 -0.113412167,8.76407127 0.340236501,9.40828758 L5.64511621,14.6454822 C5.86030016,14.8589001 6.14843418,14.9853257 6.4530902,15 Z"
                      id="Shape"></path>
            </g>
        </g>
    </g>
</svg>