<?xml version="1.0" encoding="UTF-8"?>
<svg width="22px" height="20px" viewBox="0 0 22 20" version="1.1" xmlns="http://www.w3.org/2000/svg"
>
    <!-- Generator: Sketch 52.1 (67048) - http://www.bohemiancoding.com/sketch -->
    <title>Слой_151</title>
    <desc>Created with Sketch.</desc>
    <g id="Page-1" stroke="none" stroke-width="1" fill="none" fill-rule="evenodd">
        <g id="honeycomb007_01_profilePosts" transform="translate(-503.000000, -1296.000000)" fill="#D5D7DA">
            <g id="Group-5" transform="translate(436.000000, 1016.000000)">
                <g id="Group-7" transform="translate(24.000000, 280.000000)">
                    <g id="Слой_151" transform="translate(43.000000, 0.000000)">
                        <path d="M17.4631111,1.65853659 C19.0831464,1.65853659 20.3964444,2.96892268 20.3964444,4.58536585 L20.3964444,12.3902439 C20.3964444,14.0066871 19.0831464,15.3170732 17.4631111,15.3170732 L8.54088889,15.3170732 L5.24088889,18.2439024 L5.24088889,15.3170732 L4.752,15.3170732 C3.13196473,15.3170732 1.81866667,14.0066871 1.81866667,12.3902439 L1.81866667,4.58536585 C1.81866667,2.96892268 3.13196473,1.65853659 4.752,1.65853659 L17.4631111,1.65853659 L17.4631111,1.65853659 Z M17.4631111,0.195121951 L4.752,0.195121951 C2.3219471,0.195121951 0.352,2.1607011 0.352,4.58536585 L0.352,12.3902439 C0.350850688,14.4399499 1.77132557,16.2176808 3.77422222,16.6731707 L3.77422222,18.2439024 C3.77346325,18.8213494 4.11309489,19.3452514 4.64124644,19.5813386 C5.16939799,19.8174259 5.7873067,19.7215509 6.21866667,19.3365854 L9.10311111,16.7804878 L17.4631111,16.7804878 C19.893164,16.7804878 21.8631111,14.8149087 21.8631111,12.3902439 L21.8631111,4.58536585 C21.8631111,2.1607011 19.893164,0.195121951 17.4631111,0.195121951 L17.4631111,0.195121951 Z"
                              id="Shape"></path>
                        <ellipse id="Oval" cx="11.1075556" cy="8.48780488" rx="1" ry="1"></ellipse>
                        <ellipse id="Oval" cx="15.9964444" cy="8.48780488" rx="1" ry="1"></ellipse>
                        <ellipse id="Oval" cx="6.27733333" cy="8.48780488" rx="1" ry="1"></ellipse>
                    </g>
                </g>
            </g>
        </g>
    </g>
</svg>