<?xml version="1.0" encoding="utf-8"?>
<!-- Generator: Adobe Illustrator 19.0.0, SVG Export Plug-In . SVG Version: 6.00 Build 0)  -->
<svg version="1.1" id="Layer_1" xmlns="http://www.w3.org/2000/svg" x="0px"
     y="0px"
     viewBox="0 0 35 35" style="enable-background:new 0 0 35 35;" xml:space="preserve">
<style type="text/css">
	.st0{fill:#48B74A;}
</style>
    <g id="Page-1">
	<g id="honeycomb007_03_profileRequest" transform="translate(-334.000000, -501.000000)">
		<g id="Group-5" transform="translate(337.000000, 477.000000)">
			<g id="Rectangle">
				<g id="Add-2_11_" transform="translate(51.000000, 58.000000)">
					<path id="Shape_23_" class="st0" d="M-36.5-34C-46.2-34-54-26.2-54-16.5S-46.2,1-36.5,1S-19-6.8-19-16.5S-26.8-34-36.5-34
						L-36.5-34z M-36.5-1.4c-8.3,0-15.1-6.8-15.1-15.1s6.8-15.1,15.1-15.1s15.1,6.8,15.1,15.1c0,4-1.6,7.9-4.4,10.7
						S-32.5-1.4-36.5-1.4z"/>
                    <path id="Shape_22_" class="st0" d="M-27.2-21.8c-0.4-0.4-1-0.4-1.3,0l-9.4,9.4l-5.6-5.6c-0.4-0.3-1-0.3-1.3,0
						c-0.4,0.4-0.4,0.9,0,1.3l6.3,6.3c0.4,0.4,1,0.4,1.3,0l10.1-10C-26.9-20.8-26.9-21.4-27.2-21.8L-27.2-21.8z"/>
				</g>
			</g>
		</g>
	</g>
</g>
</svg>
