<?xml version="1.0" encoding="UTF-8"?>
<svg width="10px" height="10px" viewBox="0 0 10 10" version="1.1" xmlns="http://www.w3.org/2000/svg"
>
    <!-- Generator: Sketch 52.1 (67048) - http://www.bohemiancoding.com/sketch -->
    <title>Shape</title>
    <desc>Created with Sketch.</desc>
    <g id="Page-1" stroke="none" stroke-width="1" fill="none" fill-rule="evenodd">
        <g id="createGroup" transform="translate(-905.000000, -1302.000000)" fill="#000000">
            <g id="Group-5-Copy-4" transform="translate(240.000000, 190.000000)">
                <g id="Group-Copy" transform="translate(517.000000, 1068.000000)">
                    <path d="M157.712214,44.3112501 C157.369001,43.9684399 156.812995,43.9684399 156.469782,44.3112501 L153.135142,47.780925 L149.507476,44.2643626 C149.283473,44.0353814 148.952659,43.9463746 148.64401,44.032043 C148.33536,44.1177114 148.097735,44.3644934 148.023777,44.6761765 C147.949818,44.9878596 148.051235,45.315103 148.288487,45.530325 L151.892711,49 L148.288487,52.469675 C148.051235,52.684897 147.949818,53.0121404 148.023777,53.3238235 C148.097735,53.6355066 148.33536,53.8822886 148.64401,53.967957 C148.952659,54.0536254 149.283473,53.9646186 149.507476,53.7356374 L153.135142,50.219075 L156.469782,53.6887499 C156.684989,53.9260186 157.01221,54.027442 157.323871,53.9534784 C157.635532,53.8795148 157.882297,53.641873 157.967959,53.3332018 C158.053622,53.0245306 157.964621,52.6936942 157.735656,52.469675 L154.377574,48.9531125 L157.735656,45.43655 C158.000432,45.1049511 157.99057,44.631533 157.712214,44.3112501 L157.712214,44.3112501 Z"
                          id="Shape"></path>
                </g>
            </g>
        </g>
    </g>
</svg>