<?xml version="1.0" encoding="UTF-8"?>
<svg width="14px" height="17px" viewBox="0 0 14 17" version="1.1" xmlns="http://www.w3.org/2000/svg"
>
    <!-- Generator: Sketch 52.1 (67048) - http://www.bohemiancoding.com/sketch -->
    <title>Document</title>
    <desc>Created with Sketch.</desc>
    <g id="Page-1" stroke="none" stroke-width="1" fill="none" fill-rule="evenodd">
        <g id="honeycomb007_02_profileExperience" transform="translate(-545.000000, -907.000000)" fill="#2DCBBF">
            <g id="Group-6" transform="translate(450.000000, 907.000000)">
                <g id="Document" transform="translate(95.000000, 0.000000)">
                    <path d="M12.8225641,0.158139535 L4.56615385,0.158139535 C4.19464344,0.159534281 3.8500201,0.371720102 3.65435897,0.719534884 L0.782564103,3.88232558 C0.456881766,4.0968742 0.257774755,4.48437307 0.258461538,4.90232558 L0.258461538,15.5767442 C0.258461538,16.2317796 0.740616423,16.7627907 1.33538462,16.7627907 L12.8225641,16.7627907 C13.4173323,16.7627907 13.8994872,16.2317796 13.8994872,15.5767442 L13.8994872,1.34418605 C13.8994872,0.689150646 13.4173323,0.158139535 12.8225641,0.158139535 Z M3.48923077,2.57767442 L3.48923077,3.71627907 L2.45538462,3.71627907 L3.48923077,2.57767442 Z M12.8225641,15.5767442 L1.33538462,15.5767442 L1.33538462,4.94186047 L1.35692308,4.94186047 L1.37846154,4.91813953 L4.56615385,4.91813953 L4.56615385,1.40744186 L4.58769231,1.38372093 L4.58769231,1.36 L12.8082051,1.36 L12.8225641,15.5767442 Z"
                          id="Shape"></path>
                    <path d="M10.6687179,9.25116279 L3.48923077,9.25116279 C3.19184667,9.25116279 2.95076923,9.51666835 2.95076923,9.84418605 C2.95076923,10.1717037 3.19184667,10.4372093 3.48923077,10.4372093 L10.6687179,10.4372093 C10.966102,10.4372093 11.2071795,10.1717037 11.2071795,9.84418605 C11.2071795,9.51666835 10.966102,9.25116279 10.6687179,9.25116279 Z"
                          id="Shape"></path>
                    <path d="M9.59179487,12.0186047 L3.48923077,12.0186047 C3.19184667,12.0186047 2.95076923,12.2841102 2.95076923,12.6116279 C2.95076923,12.9391456 3.19184667,13.2046512 3.48923077,13.2046512 L9.59179487,13.2046512 C9.88917897,13.2046512 10.1302564,12.9391456 10.1302564,12.6116279 C10.1302564,12.2841102 9.88917897,12.0186047 9.59179487,12.0186047 Z"
                          id="Shape"></path>
                    <path d="M8.15589744,7.66976744 L10.3097436,7.66976744 C10.9045118,7.66976744 11.3866667,7.13875633 11.3866667,6.48372093 L11.3866667,4.11162791 C11.3866667,3.45659251 10.9045118,2.9255814 10.3097436,2.9255814 L8.15589744,2.9255814 C7.56112924,2.9255814 7.07897436,3.45659251 7.07897436,4.11162791 L7.07897436,6.48372093 C7.07897436,7.13875633 7.56112924,7.66976744 8.15589744,7.66976744 Z M8.15589744,4.11162791 L10.3097436,4.11162791 L10.3097436,6.48372093 L8.15589744,6.48372093 L8.15589744,4.11162791 Z"
                          id="Shape"></path>
                </g>
            </g>
        </g>
    </g>
</svg>