<?xml version="1.0" encoding="UTF-8"?>
<svg width="8px" height="16px" viewBox="0 0 8 16" version="1.1" xmlns="http://www.w3.org/2000/svg"
>
    <!-- Generator: Sketch 52.1 (67048) - http://www.bohemiancoding.com/sketch -->
    <title>facebook icon</title>
    <desc>Created with Sketch.</desc>
    <g id="Page-1" stroke="none" stroke-width="1" fill="none" fill-rule="evenodd">
        <g id="honeycomb007_02_profileExperience" transform="translate(-656.000000, -538.000000)" fill="#FFFFFF"
           fill-rule="nonzero">
            <g id="Group-16" transform="translate(644.000000, 530.000000)">
                <g id="Group-13">
                    <g id="facebook-icon" transform="translate(12.800000, 8.800000)">
                        <path d="M7.2,4.92182985 L4.747933,4.92182985 L4.747933,3.3442517 C4.747933,2.75179466 5.1482181,2.61367005 5.43014968,2.61367005 C5.71143977,2.61367005 7.16054882,2.61367005 7.16054882,2.61367005 L7.16054882,0.00912440488 L4.7774412,0 C2.13196722,0 1.52993585,1.94255434 1.52993585,3.18567584 L1.52993585,4.92182985 L0,4.92182985 L0,7.60566342 L1.52993585,7.60566342 C1.52993585,11.049969 1.52993585,15.2 1.52993585,15.2 L4.747933,15.2 C4.747933,15.2 4.747933,11.0090665 4.747933,7.60566342 L6.91935139,7.60566342 L7.2,4.92182985 Z"
                              id="Shape"></path>
                    </g>
                </g>
            </g>
        </g>
    </g>
</svg>