<?xml version="1.0" encoding="UTF-8"?>
<svg width="22px" height="17px" viewBox="0 0 22 17" version="1.1" xmlns="http://www.w3.org/2000/svg"
>
    <!-- Generator: Sketch 52.1 (67048) - http://www.bohemiancoding.com/sketch -->
    <title>noun_group_1386878</title>
    <desc>Created with Sketch.</desc>
    <g id="Page-1" stroke="none" stroke-width="1" fill="none" fill-rule="evenodd">
        <g id="honeycomb008_01_settings" transform="translate(-432.000000, -106.000000)">
            <g id="noun_group_1386878" transform="translate(432.000000, 106.000000)">
                <g id="Group">
                    <ellipse id="Oval" cx="5.29588889" cy="6.79927143" rx="1" ry="1"></ellipse>
                    <ellipse id="Oval" cx="8.14782222" cy="12.1433429" rx="1" ry="1"></ellipse>
                    <ellipse id="Oval" cx="2.44371111" cy="12.1433429" rx="1" ry="1"></ellipse>
                    <ellipse id="Oval" cx="13.8519333" cy="1.58998571" rx="1" ry="1"></ellipse>
                    <ellipse id="Oval" cx="11" cy="6.79927143" rx="1" ry="1"></ellipse>
                    <ellipse id="Oval" cx="8.14782222" cy="1.58998571" rx="1" ry="1"></ellipse>
                    <ellipse id="Oval" cx="13.8519333" cy="12.1433429" rx="1" ry="1"></ellipse>
                    <ellipse id="Oval" cx="19.5562889" cy="12.1433429" rx="1" ry="1"></ellipse>
                    <ellipse id="Oval" cx="16.7041111" cy="6.79927143" rx="1" ry="1"></ellipse>
                    <path d="M7.60955556,4.1123 L8.68584444,4.1123 C9.01462222,4.1123 9.33753333,4.24538571 9.57146667,4.47755714 C9.70395556,4.60942857 9.80173333,4.7753 9.856,4.95962857 L10.5602444,4.95962857 C10.4944889,4.59242857 10.3206889,4.26068571 10.0552222,3.99694286 C9.69393333,3.63824286 9.19477778,3.43254286 8.68584444,3.43254286 L7.60955556,3.43254286 C7.10062222,3.43254286 6.60146667,3.63824286 6.24017778,3.99694286 C5.97446667,4.26068571 5.80091111,4.59242857 5.73515556,4.95962857 L6.4394,4.95962857 C6.49366667,4.7753 6.59144444,4.60942857 6.72393333,4.47755714 C6.95811111,4.24538571 7.28077778,4.1123 7.60955556,4.1123 Z"
                          id="Path" fill="#333C4E" fill-rule="nonzero"></path>
                    <path d="M8.14782222,2.9546 C8.90535556,2.9546 9.5216,2.34235714 9.5216,1.58974286 C9.5216,0.837371429 8.90535556,0.225128571 8.14782222,0.225128571 C7.39028889,0.225128571 6.77404444,0.837371429 6.77404444,1.58974286 C6.77428889,2.34235714 7.39028889,2.9546 8.14782222,2.9546 Z M8.14782222,0.905128571 C8.52793333,0.905128571 8.83715556,1.21234286 8.83715556,1.58974286 C8.83715556,1.96762857 8.52793333,2.2746 8.14782222,2.2746 C7.76771111,2.2746 7.45848889,1.96738571 7.45848889,1.58974286 C7.45848889,1.2121 7.76771111,0.905128571 8.14782222,0.905128571 Z"
                          id="Shape" fill="#333C4E" fill-rule="nonzero"></path>
                    <path d="M13.3139111,4.1123 L14.3902,4.1123 C14.7189778,4.1123 15.0418889,4.24538571 15.2755778,4.47755714 C15.4080667,4.60918571 15.5058444,4.77505714 15.5603556,4.95962857 L16.2646,4.95962857 C16.1988444,4.59242857 16.0250444,4.26068571 15.7595778,3.99694286 C15.3982889,3.63824286 14.8991333,3.43254286 14.3902,3.43254286 L13.3139111,3.43254286 C12.8049778,3.43254286 12.3058222,3.63824286 11.9445333,3.99694286 C11.6790667,4.26068571 11.5052667,4.59242857 11.4395111,4.95962857 L12.1437556,4.95962857 C12.1980222,4.7753 12.2958,4.60942857 12.4282889,4.47755714 C12.6619778,4.24538571 12.9848889,4.1123 13.3139111,4.1123 Z"
                          id="Path" fill="#333C4E" fill-rule="nonzero"></path>
                    <path d="M13.8519333,2.9546 C14.6094667,2.9546 15.2257111,2.34235714 15.2257111,1.58974286 C15.2257111,0.837371429 14.6094667,0.225128571 13.8519333,0.225128571 C13.0946444,0.225128571 12.4784,0.837371429 12.4784,1.58974286 C12.4784,2.34235714 13.0946444,2.9546 13.8519333,2.9546 Z M13.8519333,0.905128571 C14.2320444,0.905128571 14.5412667,1.21234286 14.5412667,1.58974286 C14.5412667,1.96762857 14.2320444,2.2746 13.8519333,2.2746 C13.4718222,2.2746 13.1626,1.96738571 13.1626,1.58974286 C13.1626,1.2121 13.4718222,0.905128571 13.8519333,0.905128571 Z"
                          id="Shape" fill="#333C4E" fill-rule="nonzero"></path>
                    <path d="M4.75762222,9.32158571 L5.83391111,9.32158571 C6.16293333,9.32158571 6.4856,9.45491429 6.71928889,9.68708571 C6.85177778,9.81871429 6.94955556,9.98458571 7.00382222,10.1691571 L7.70806667,10.1691571 C7.64231111,9.80195714 7.46851111,9.47045714 7.20328889,9.20671429 C6.84175556,8.84752857 6.3426,8.64182857 5.83391111,8.64182857 L4.75762222,8.64182857 C4.24868889,8.64182857 3.74953333,8.84752857 3.38824444,9.20671429 C3.12277778,9.47045714 2.94897778,9.80195714 2.88322222,10.1691571 L3.58746667,10.1691571 C3.64197778,9.98458571 3.73975556,9.81871429 3.87224444,9.68708571 C4.10568889,9.45491429 4.4286,9.32158571 4.75762222,9.32158571 Z"
                          id="Path" fill="#333C4E" fill-rule="nonzero"></path>
                    <path d="M5.29588889,8.16412857 C6.05317778,8.16412857 6.66942222,7.55188571 6.66942222,6.79927143 C6.66942222,6.04665714 6.05317778,5.43441429 5.29588889,5.43441429 C4.53835556,5.43441429 3.92211111,6.04665714 3.92211111,6.79927143 C3.92211111,7.55188571 4.53835556,8.16412857 5.29588889,8.16412857 Z M5.29588889,6.11441429 C5.676,6.11441429 5.98497778,6.42162857 5.98497778,6.79927143 C5.98497778,7.17715714 5.67575556,7.48412857 5.29588889,7.48412857 C4.91577778,7.48412857 4.60655556,7.17691429 4.60655556,6.79927143 C4.60631111,6.42162857 4.91577778,6.11441429 5.29588889,6.11441429 Z"
                          id="Shape" fill="#333C4E" fill-rule="nonzero"></path>
                    <path d="M11.5380222,9.32158571 C11.8670444,9.32158571 12.1899556,9.45491429 12.4236444,9.68708571 C12.5558889,9.81871429 12.6536667,9.98458571 12.7081778,10.1691571 L13.4124222,10.1691571 C13.3466667,9.80195714 13.1728667,9.47045714 12.9076444,9.20671429 C12.5461111,8.84752857 12.0469556,8.64182857 11.5380222,8.64182857 L10.4617333,8.64182857 C9.9528,8.64182857 9.45364444,8.84752857 9.09235556,9.20671429 C8.82688889,9.47045714 8.65308889,9.80195714 8.58733333,10.1691571 L9.29157778,10.1691571 C9.34608889,9.98458571 9.44386667,9.81871429 9.57635556,9.68708571 C9.81004444,9.45491429 10.1327111,9.32158571 10.4617333,9.32158571 L11.5380222,9.32158571 Z"
                          id="Path" fill="#333C4E" fill-rule="nonzero"></path>
                    <path d="M11,8.16412857 C11.7575333,8.16412857 12.3737778,7.55188571 12.3737778,6.79927143 C12.3737778,6.04665714 11.7575333,5.43441429 11,5.43441429 C10.2424667,5.43441429 9.62622222,6.04665714 9.62622222,6.79927143 C9.62622222,7.55188571 10.2424667,8.16412857 11,8.16412857 Z M11,6.11441429 C11.3801111,6.11441429 11.6893333,6.42162857 11.6893333,6.79927143 C11.6893333,7.17715714 11.3801111,7.48412857 11,7.48412857 C10.6198889,7.48412857 10.3106667,7.17691429 10.3106667,6.79927143 C10.3106667,6.42162857 10.6196444,6.11441429 11,6.11441429 Z"
                          id="Shape" fill="#333C4E" fill-rule="nonzero"></path>
                    <path d="M16.1658444,8.64158571 C15.6569111,8.64158571 15.1577556,8.84728571 14.7964667,9.20647143 C14.531,9.47021429 14.3572,9.80171429 14.2914444,10.1689143 L14.9956889,10.1689143 C15.0499556,9.98434286 15.1479778,9.81822857 15.2802222,9.68684286 C15.5144,9.45467143 15.8370667,9.32134286 16.1658444,9.32134286 L17.2421333,9.32134286 C17.5709111,9.32134286 17.8938222,9.45467143 18.1277556,9.68684286 C18.26,9.81822857 18.3577778,9.98434286 18.4122889,10.1689143 L19.1165333,10.1689143 C19.0507778,9.80171429 18.8769778,9.46997143 18.6115111,9.20647143 C18.2504667,8.84728571 17.7513111,8.64158571 17.2421333,8.64158571 L16.1658444,8.64158571 Z"
                          id="Path" fill="#333C4E" fill-rule="nonzero"></path>
                    <path d="M16.7041111,8.16412857 C17.4616444,8.16412857 18.0778889,7.55188571 18.0778889,6.79927143 C18.0778889,6.04665714 17.4616444,5.43441429 16.7041111,5.43441429 C15.9468222,5.43441429 15.3305778,6.04665714 15.3305778,6.79927143 C15.3305778,7.55188571 15.9465778,8.16412857 16.7041111,8.16412857 Z M16.7041111,6.11441429 C17.0842222,6.11441429 17.3934444,6.42162857 17.3934444,6.79927143 C17.3934444,7.17715714 17.0842222,7.48412857 16.7041111,7.48412857 C16.324,7.48412857 16.0150222,7.17691429 16.0150222,6.79927143 C16.0147778,6.42162857 16.324,6.11441429 16.7041111,6.11441429 Z"
                          id="Shape" fill="#333C4E" fill-rule="nonzero"></path>
                    <path d="M2.98197778,13.9856571 L1.90568889,13.9856571 C1.39651111,13.9856571 0.897355556,14.1913571 0.536066667,14.5503 C0.190422222,14.8941857 0,15.3514857 0,15.8389 L0,16.7748714 L0.684444444,16.7748714 L0.684444444,15.8389 C0.684444444,15.5331429 0.803733333,15.2463286 1.02006667,15.0314 C1.254,14.7989857 1.57666667,14.6656571 1.90568889,14.6656571 L2.98197778,14.6656571 C3.31075556,14.6656571 3.63366667,14.7989857 3.8676,15.0314 C4.08393333,15.2460857 4.20322222,15.5326571 4.20322222,15.8389 L4.20322222,16.7748714 L4.88766667,16.7748714 L4.88766667,15.8389 C4.88766667,15.3514857 4.69724444,14.8939429 4.3516,14.5505429 C3.99006667,14.1916 3.49091111,13.9856571 2.98197778,13.9856571 Z"
                          id="Path" fill="#333C4E" fill-rule="nonzero"></path>
                    <path d="M2.44371111,13.5079571 C3.20124444,13.5079571 3.81748889,12.8957143 3.81748889,12.1433429 C3.81748889,11.3907286 3.20124444,10.7784857 2.44371111,10.7784857 C1.68617778,10.7784857 1.06993333,11.3907286 1.06993333,12.1433429 C1.06993333,12.8959571 1.68617778,13.5079571 2.44371111,13.5079571 Z M2.44371111,11.4584857 C2.82382222,11.4584857 3.13304444,11.7657 3.13304444,12.1433429 C3.13304444,12.5209857 2.82382222,12.8279571 2.44371111,12.8279571 C2.0636,12.8279571 1.75437778,12.5207429 1.75437778,12.1433429 C1.75437778,11.7657 2.0636,11.4584857 2.44371111,11.4584857 Z"
                          id="Shape" fill="#333C4E" fill-rule="nonzero"></path>
                    <path d="M8.68608889,13.9856571 L7.60955556,13.9856571 C7.10062222,13.9856571 6.60146667,14.1913571 6.24017778,14.5503 C5.89428889,14.8939429 5.70411111,15.3514857 5.70411111,15.8386571 L5.70411111,16.7746286 L6.38831111,16.7746286 L6.38831111,15.8386571 C6.38831111,15.5329 6.5076,15.2460857 6.72417778,15.0311571 C6.95762222,14.7987429 7.28028889,14.6654143 7.60955556,14.6654143 L8.68584444,14.6654143 C9.01486667,14.6654143 9.33753333,14.7987429 9.57146667,15.0311571 C9.78804444,15.2463286 9.90708889,15.5329 9.90708889,15.8386571 L9.90708889,16.7746286 L10.5912889,16.7746286 L10.5912889,15.8386571 C10.5912889,15.3514857 10.4008667,14.8937 10.0552222,14.5503 C9.69417778,14.1916 9.19502222,13.9856571 8.68608889,13.9856571 Z"
                          id="Path" fill="#333C4E" fill-rule="nonzero"></path>
                    <path d="M8.14782222,10.7784857 C7.39028889,10.7784857 6.77404444,11.3907286 6.77404444,12.1433429 C6.77404444,12.8957143 7.39028889,13.5079571 8.14782222,13.5079571 C8.90535556,13.5079571 9.5216,12.8957143 9.5216,12.1433429 C9.5216,11.3907286 8.90535556,10.7784857 8.14782222,10.7784857 Z M8.14782222,12.8282 C7.76771111,12.8282 7.45848889,12.5209857 7.45848889,12.1435857 C7.45848889,11.7657 7.76771111,11.4587286 8.14782222,11.4587286 C8.52793333,11.4587286 8.83715556,11.7659429 8.83715556,12.1435857 C8.8374,12.5209857 8.52793333,12.8282 8.14782222,12.8282 Z"
                          id="Shape" fill="#333C4E" fill-rule="nonzero"></path>
                    <path d="M14.3902,13.9856571 L13.3139111,13.9856571 C12.8047333,13.9856571 12.3058222,14.1913571 11.9445333,14.5503 C11.5986444,14.8939429 11.4082222,15.3514857 11.4082222,15.8386571 L11.4082222,16.7746286 L12.0926667,16.7746286 L12.0926667,15.8386571 C12.0926667,15.5329 12.2119556,15.2463286 12.4285333,15.0311571 C12.6619778,14.7987429 12.9846444,14.6654143 13.3139111,14.6654143 L14.3902,14.6654143 C14.7192222,14.6654143 15.0421333,14.7987429 15.2755778,15.0311571 C15.4921556,15.2460857 15.6112,15.5329 15.6112,15.8386571 L15.6112,16.7746286 L16.2956444,16.7746286 L16.2956444,15.8386571 C16.2956444,15.3514857 16.1052222,14.8939429 15.7595778,14.5503 C15.3982889,14.1916 14.8991333,13.9856571 14.3902,13.9856571 Z"
                          id="Path" fill="#333C4E" fill-rule="nonzero"></path>
                    <path d="M13.8519333,13.5079571 C14.6094667,13.5079571 15.2257111,12.8957143 15.2257111,12.1433429 C15.2257111,11.3907286 14.6094667,10.7784857 13.8519333,10.7784857 C13.0946444,10.7784857 12.4784,11.3907286 12.4784,12.1433429 C12.4784,12.8959571 13.0946444,13.5079571 13.8519333,13.5079571 Z M13.8519333,11.4584857 C14.2320444,11.4584857 14.5412667,11.7657 14.5412667,12.1433429 C14.5412667,12.5209857 14.2320444,12.8279571 13.8519333,12.8279571 C13.4718222,12.8279571 13.1626,12.5207429 13.1626,12.1433429 C13.1626,11.7657 13.4718222,11.4584857 13.8519333,11.4584857 Z"
                          id="Shape" fill="#333C4E" fill-rule="nonzero"></path>
                    <path d="M20.0943111,13.9856571 L19.0180222,13.9856571 C18.5088444,13.9856571 18.0099333,14.1913571 17.6486444,14.5503 C17.3027556,14.8939429 17.1123333,15.3514857 17.1123333,15.8386571 L17.1123333,16.7746286 L17.7967778,16.7746286 L17.7967778,15.8386571 C17.7967778,15.5329 17.9160667,15.2460857 18.1326444,15.0311571 C18.3660889,14.7987429 18.6887556,14.6654143 19.0180222,14.6654143 L20.0943111,14.6654143 C20.4233333,14.6654143 20.7462444,14.7987429 20.9799333,15.0311571 C21.1965111,15.2460857 21.3155556,15.5329 21.3155556,15.8386571 L21.3155556,16.7746286 L22,16.7746286 L22,15.8386571 C22,15.3514857 21.8095778,14.8939429 21.4639333,14.5503 C21.1026444,14.1916 20.6034889,13.9856571 20.0943111,13.9856571 Z"
                          id="Path" fill="#333C4E" fill-rule="nonzero"></path>
                    <path d="M19.5562889,13.5079571 C20.3135778,13.5079571 20.9298222,12.8957143 20.9298222,12.1433429 C20.9298222,11.3907286 20.3135778,10.7784857 19.5562889,10.7784857 C18.7987556,10.7784857 18.1825111,11.3907286 18.1825111,12.1433429 C18.1825111,12.8959571 18.7987556,13.5079571 19.5562889,13.5079571 Z M19.5562889,11.4584857 C19.9364,11.4584857 20.2453778,11.7657 20.2453778,12.1433429 C20.2453778,12.5209857 19.9361556,12.8279571 19.5562889,12.8279571 C19.1761778,12.8279571 18.8669556,12.5207429 18.8669556,12.1433429 C18.8669556,11.7657 19.1761778,11.4584857 19.5562889,11.4584857 Z"
                          id="Shape" fill="#333C4E" fill-rule="nonzero"></path>
                </g>
            </g>
        </g>
    </g>
</svg>