<?xml version="1.0" encoding="UTF-8"?>
<svg width="21px" height="25px" viewBox="0 0 21 25" version="1.1" xmlns="http://www.w3.org/2000/svg"
>
    <!-- Generator: Sketch 52.1 (67048) - http://www.bohemiancoding.com/sketch -->
    <title>Locked</title>
    <desc>Created with Sketch.</desc>
    <g id="Page-1" stroke="none" stroke-width="1" fill="none" fill-rule="evenodd">
        <g id="createGroup" transform="translate(-1055.000000, -1153.000000)" fill="#2DCBBF">
            <g id="Group-5-Copy-4" transform="translate(240.000000, 190.000000)">
                <g id="Group-8" transform="translate(513.000000, 840.000000)">
                    <g id="Group-Copy">
                        <g id="Locked" transform="translate(302.000000, 123.000000)">
                            <path d="M19.032,9.16666667 L17.232,9.16666667 L17.232,6.78571429 C17.232,3.16956414 14.2770793,0.238095238 10.632,0.238095238 C6.98692065,0.238095238 4.032,3.16956414 4.032,6.78571429 L4.032,9.16666667 L2.232,9.16666667 C1.23788745,9.16666667 0.432,9.96615818 0.432,10.952381 L0.432,22.8571429 C0.432,23.8433656 1.23788745,24.6428571 2.232,24.6428571 L19.032,24.6428571 C20.0261125,24.6428571 20.832,23.8433656 20.832,22.8571429 L20.832,10.952381 C20.832,9.96615818 20.0261125,9.16666667 19.032,9.16666667 L19.032,9.16666667 Z M5.832,6.78571429 C5.832,4.15578691 7.9810332,2.02380952 10.632,2.02380952 C13.2829668,2.02380952 15.432,4.15578691 15.432,6.78571429 L15.432,9.16666667 L5.832,9.16666667 L5.832,6.78571429 Z M19.032,22.8571429 L2.232,22.8571429 L2.232,10.952381 L19.032,10.952381 L19.032,22.8571429 Z"
                                  id="Shape"></path>
                            <path d="M10.932,19.8809524 C12.4231688,19.8809524 13.632,18.6817151 13.632,17.202381 C13.632,15.7230468 12.4231688,14.5238095 10.932,14.5238095 C9.44083118,14.5238095 8.232,15.7230468 8.232,17.202381 C8.23529968,18.6803571 9.44220009,19.8776789 10.932,19.8809524 Z M10.932,16.3095238 C11.4290563,16.3095238 11.832,16.7092696 11.832,17.202381 C11.832,17.6954923 11.4290563,18.0952381 10.932,18.0952381 C10.4349437,18.0952381 10.032,17.6954923 10.032,17.202381 C10.032,16.7092696 10.4349437,16.3095238 10.932,16.3095238 Z"
                                  id="Shape"></path>
                        </g>
                    </g>
                </g>
            </g>
        </g>
    </g>
</svg>