<?xml version="1.0" encoding="UTF-8"?>
<svg width="18px" height="17px" viewBox="0 0 18 17" version="1.1" xmlns="http://www.w3.org/2000/svg"
>
    <!-- Generator: Sketch 52.1 (67048) - http://www.bohemiancoding.com/sketch -->
    <title>Home</title>
    <desc>Created with Sketch.</desc>
    <g id="Page-1" stroke="none" stroke-width="1" fill="none" fill-rule="evenodd">
        <g id="honeycomb008_01_settings" transform="translate(-159.000000, -106.000000)" fill="#333C4E">
            <g id="Group-Copy-2" transform="translate(159.000000, 106.000000)">
                <g id="Home">
                    <path d="M17.408,6.92547619 L9.864,0.449285714 C9.41628743,0.0652034513 8.75971257,0.0652034513 8.312,0.449285714 L0.768,6.92547619 C0.393370335,7.24846926 0.251627653,7.77019313 0.410438192,8.24158315 C0.569248732,8.71297316 0.99640985,9.03844369 1.488,9.06261905 L1.488,15.5388095 C1.488,16.209441 2.0252583,16.7530952 2.688,16.7530952 L15.488,16.7530952 C16.1507417,16.7530952 16.688,16.209441 16.688,15.5388095 L16.688,9.06666667 C17.1795902,9.04249131 17.6067513,8.71702078 17.7655618,8.24563076 C17.9243723,7.77424075 17.7826297,7.25251688 17.408,6.92952381 L17.408,6.92547619 Z M8.688,15.5428571 L7.888,15.5428571 L7.888,11.9 L10.288,11.9 L10.288,15.5428571 L8.688,15.5428571 Z M15.488,7.85238095 L15.488,15.5428571 L11.488,15.5428571 L11.488,11.9 C11.488,11.2293685 10.9507417,10.6857143 10.288,10.6857143 L7.888,10.6857143 C7.2252583,10.6857143 6.688,11.2293685 6.688,11.9 L6.688,15.5428571 L2.688,15.5428571 L2.688,7.85238095 L1.544,7.85238095 L9.088,1.37619048 L16.632,7.85238095 L15.488,7.85238095 Z"
                          id="Shape"></path>
                </g>
            </g>
        </g>
    </g>
</svg>