<?xml version="1.0" encoding="UTF-8"?>
<svg width="64px" height="67px" viewBox="0 0 64 67" version="1.1" xmlns="http://www.w3.org/2000/svg"
>
    <!-- Generator: Sketch 52.1 (67048) - http://www.bohemiancoding.com/sketch -->
    <title>noun_Honeycomb_918777</title>
    <desc>Created with Sketch.</desc>
    <g id="Page-1" stroke="none" stroke-width="1" fill="none" fill-rule="evenodd" opacity="0.200000003">
        <g id="honeycomb001_landing" transform="translate(-1331.000000, -157.000000)" fill="#FFFFFF"
           fill-rule="nonzero">
            <g id="noun_Honeycomb_918777" transform="translate(1331.000000, 157.000000)">
                <path d="M62.8622222,20.0287234 L59.0933333,13.5425532 C58.0977778,11.7606383 56.1777778,10.6914894 54.1866667,10.6914894 L46.72,10.6914894 C46.08,10.6914894 45.5111111,10.8340426 44.9422222,10.9765957 C44.8,10.406383 44.5866667,9.90744681 44.3733333,9.40851064 L40.6044444,2.92234043 C39.6088889,1.14042553 37.6888889,0.0712765957 35.6977778,0.0712765957 L28.2311111,0.0712765957 C26.1688889,0.0712765957 24.32,1.14042553 23.3244444,2.92234043 L19.5555556,9.40851064 C19.2711111,9.90744681 19.0577778,10.406383 18.9866667,10.9053191 C18.4888889,10.762766 17.92,10.6914894 17.3511111,10.6914894 L9.81333333,10.6914894 C7.75111111,10.6914894 5.90222222,11.7606383 4.90666667,13.5425532 L1.13777778,20.0287234 C0.142222222,21.8106383 0.142222222,23.9489362 1.13777778,25.7308511 L4.90666667,32.2170213 C5.19111111,32.7159574 5.54666667,33.143617 5.90222222,33.5 C5.54666667,33.856383 5.19111111,34.2840426 4.90666667,34.7829787 L1.13777778,41.2691489 C0.142222222,43.0510638 0.142222222,45.1893617 1.13777778,46.9712766 L4.90666667,53.4574468 C5.90222222,55.2393617 7.82222222,56.3085106 9.81333333,56.3085106 L17.28,56.3085106 C17.8488889,56.3085106 18.4177778,56.237234 18.9155556,56.0946809 C19.0577778,56.593617 19.2,57.0925532 19.4844444,57.5914894 L23.2533333,64.0776596 C24.2488889,65.8595745 26.1688889,66.9287234 28.16,66.9287234 L35.6266667,66.9287234 C37.6888889,66.9287234 39.5377778,65.8595745 40.5333333,64.0776596 L44.3022222,57.5914894 C45.2977778,55.8095745 45.2977778,53.6712766 44.3022222,51.8893617 L40.5333333,45.4031915 C39.5377778,43.6212766 37.6177778,42.5521277 35.6266667,42.5521277 L28.2311111,42.5521277 C27.6622222,42.5521277 27.0933333,42.6234043 26.5955556,42.7659574 C26.4533333,42.2670213 26.3111111,41.7680851 26.0266667,41.2691489 L22.2577778,34.7829787 C21.9733333,34.2840426 21.6177778,33.856383 21.2622222,33.5 C21.6177778,33.143617 21.9733333,32.7159574 22.2577778,32.2170213 L26.0266667,25.7308511 C26.3111111,25.2319149 26.5244444,24.7329787 26.5955556,24.2340426 C27.0933333,24.3765957 27.6622222,24.4478723 28.2311111,24.4478723 L35.6977778,24.4478723 C36.3377778,24.4478723 36.9066667,24.3053191 37.4755556,24.162766 C37.6177778,24.7329787 37.8311111,25.2319149 38.0444444,25.7308511 L41.8133333,32.2170213 C42.8088889,33.9989362 44.7288889,35.0680851 46.72,35.0680851 L54.1866667,35.0680851 C56.2488889,35.0680851 58.0977778,33.9989362 59.0933333,32.2170213 L62.8622222,25.7308511 C63.8577778,24.0202128 63.8577778,21.8106383 62.8622222,20.0287234 Z M26.0266667,46.9712766 C26.4533333,46.187234 27.3066667,45.6882979 28.2311111,45.6882979 L35.6977778,45.6882979 C36.6222222,45.6882979 37.4044444,46.187234 37.9022222,46.9712766 L41.6711111,53.4574468 C42.0977778,54.2414894 42.0977778,55.1680851 41.6711111,55.9521277 L37.9022222,62.4382979 C37.4755556,63.2223404 36.6222222,63.7212766 35.6977778,63.7212766 L28.2311111,63.7212766 C27.3066667,63.7212766 26.5244444,63.2223404 26.0266667,62.4382979 L22.2577778,55.9521277 C21.8311111,55.1680851 21.8311111,54.2414894 22.2577778,53.4574468 L26.0266667,46.9712766 Z M23.2533333,42.837234 C23.68,43.6212766 23.68,44.5478723 23.2533333,45.3319149 L19.4844444,51.8180851 C19.0577778,52.6021277 18.2044444,53.1010638 17.28,53.1010638 L9.81333333,53.1010638 C8.88888889,53.1010638 8.10666667,52.6021277 7.60888889,51.8180851 L3.84,45.3319149 C3.41333333,44.5478723 3.41333333,43.6212766 3.84,42.837234 L7.60888889,36.3510638 C8.03555556,35.5670213 8.88888889,35.0680851 9.81333333,35.0680851 L17.28,35.0680851 C18.2044444,35.0680851 18.9866667,35.5670213 19.4844444,36.3510638 L23.2533333,42.837234 Z M23.2533333,24.162766 L19.4844444,30.6489362 C19.0577778,31.4329787 18.2044444,31.9319149 17.28,31.9319149 L9.81333333,31.9319149 C8.88888889,31.9319149 8.10666667,31.4329787 7.60888889,30.6489362 L3.84,24.162766 C3.41333333,23.3787234 3.41333333,22.4521277 3.84,21.6680851 L7.60888889,15.1819149 C8.03555556,14.3978723 8.88888889,13.8989362 9.81333333,13.8989362 L17.28,13.8989362 C18.2044444,13.8989362 18.9866667,14.3978723 19.4844444,15.1819149 L23.2533333,21.6680851 C23.68,22.4521277 23.68,23.3787234 23.2533333,24.162766 Z M37.8311111,20.0287234 C37.4044444,20.812766 36.5511111,21.3117021 35.6266667,21.3117021 L28.2311111,21.3117021 C27.3066667,21.3117021 26.5244444,20.812766 26.0266667,20.0287234 L22.2577778,13.5425532 C21.8311111,12.7585106 21.8311111,11.8319149 22.2577778,11.0478723 L26.0266667,4.56170213 C26.4533333,3.77765957 27.3066667,3.2787234 28.2311111,3.2787234 L35.6977778,3.2787234 C36.6222222,3.2787234 37.4044444,3.77765957 37.9022222,4.56170213 L41.6711111,11.0478723 C42.0977778,11.8319149 42.0977778,12.7585106 41.6711111,13.5425532 L37.8311111,20.0287234 Z M60.0888889,24.162766 L56.32,30.6489362 C55.8933333,31.4329787 55.04,31.9319149 54.1155556,31.9319149 L46.72,31.9319149 C45.7955556,31.9319149 45.0133333,31.4329787 44.5155556,30.6489362 L40.7466667,24.162766 C40.32,23.3787234 40.32,22.4521277 40.7466667,21.6680851 L44.5155556,15.1819149 C44.9422222,14.3978723 45.7955556,13.8989362 46.72,13.8989362 L54.1866667,13.8989362 C55.1111111,13.8989362 55.8933333,14.3978723 56.3911111,15.1819149 L60.16,21.6680851 C60.5155556,22.4521277 60.5155556,23.3787234 60.0888889,24.162766 Z"
                      id="Shape"></path>
            </g>
        </g>
    </g>
</svg>