<?xml version="1.0" encoding="UTF-8"?>
<svg width="128px" height="134px" viewBox="0 0 128 134" version="1.1" xmlns="http://www.w3.org/2000/svg"
>
    <!-- Generator: Sketch 52.1 (67048) - http://www.bohemiancoding.com/sketch -->
    <title>noun_Honeycomb_918777 Copy</title>
    <desc>Created with Sketch.</desc>
    <g id="Page-1" stroke="none" stroke-width="1" fill="none" fill-rule="evenodd" opacity="0.100000001">
        <g id="honeycomb001_landing" transform="translate(-795.000000, -671.000000)" fill="#FFFFFF" fill-rule="nonzero">
            <g id="noun_Honeycomb_918777-Copy" transform="translate(795.000000, 671.000000)">
                <path d="M125.724444,40.0574468 L118.186667,27.0851064 C116.195556,23.5212766 112.355556,21.3829787 108.373333,21.3829787 L93.44,21.3829787 C92.16,21.3829787 91.0222222,21.6680851 89.8844444,21.9531915 C89.6,20.812766 89.1733333,19.8148936 88.7466667,18.8170213 L81.2088889,5.84468085 C79.2177778,2.28085106 75.3777778,0.142553191 71.3955556,0.142553191 L56.4622222,0.142553191 C52.3377778,0.142553191 48.64,2.28085106 46.6488889,5.84468085 L39.1111111,18.8170213 C38.5422222,19.8148936 38.1155556,20.812766 37.9733333,21.8106383 C36.9777778,21.5255319 35.84,21.3829787 34.7022222,21.3829787 L19.6266667,21.3829787 C15.5022222,21.3829787 11.8044444,23.5212766 9.81333333,27.0851064 L2.27555556,40.0574468 C0.284444444,43.6212766 0.284444444,47.8978723 2.27555556,51.4617021 L9.81333333,64.4340426 C10.3822222,65.4319149 11.0933333,66.287234 11.8044444,67 C11.0933333,67.712766 10.3822222,68.5680851 9.81333333,69.5659574 L2.27555556,82.5382979 C0.284444444,86.1021277 0.284444444,90.3787234 2.27555556,93.9425532 L9.81333333,106.914894 C11.8044444,110.478723 15.6444444,112.617021 19.6266667,112.617021 L34.56,112.617021 C35.6977778,112.617021 36.8355556,112.474468 37.8311111,112.189362 C38.1155556,113.187234 38.4,114.185106 38.9688889,115.182979 L46.5066667,128.155319 C48.4977778,131.719149 52.3377778,133.857447 56.32,133.857447 L71.2533333,133.857447 C75.3777778,133.857447 79.0755556,131.719149 81.0666667,128.155319 L88.6044444,115.182979 C90.5955556,111.619149 90.5955556,107.342553 88.6044444,103.778723 L81.0666667,90.806383 C79.0755556,87.2425532 75.2355556,85.1042553 71.2533333,85.1042553 L56.4622222,85.1042553 C55.3244444,85.1042553 54.1866667,85.2468085 53.1911111,85.5319149 C52.9066667,84.5340426 52.6222222,83.5361702 52.0533333,82.5382979 L44.5155556,69.5659574 C43.9466667,68.5680851 43.2355556,67.712766 42.5244444,67 C43.2355556,66.287234 43.9466667,65.4319149 44.5155556,64.4340426 L52.0533333,51.4617021 C52.6222222,50.4638298 53.0488889,49.4659574 53.1911111,48.4680851 C54.1866667,48.7531915 55.3244444,48.8957447 56.4622222,48.8957447 L71.3955556,48.8957447 C72.6755556,48.8957447 73.8133333,48.6106383 74.9511111,48.3255319 C75.2355556,49.4659574 75.6622222,50.4638298 76.0888889,51.4617021 L83.6266667,64.4340426 C85.6177778,67.9978723 89.4577778,70.1361702 93.44,70.1361702 L108.373333,70.1361702 C112.497778,70.1361702 116.195556,67.9978723 118.186667,64.4340426 L125.724444,51.4617021 C127.715556,48.0404255 127.715556,43.6212766 125.724444,40.0574468 Z M52.0533333,93.9425532 C52.9066667,92.3744681 54.6133333,91.3765957 56.4622222,91.3765957 L71.3955556,91.3765957 C73.2444444,91.3765957 74.8088889,92.3744681 75.8044444,93.9425532 L83.3422222,106.914894 C84.1955556,108.482979 84.1955556,110.33617 83.3422222,111.904255 L75.8044444,124.876596 C74.9511111,126.444681 73.2444444,127.442553 71.3955556,127.442553 L56.4622222,127.442553 C54.6133333,127.442553 53.0488889,126.444681 52.0533333,124.876596 L44.5155556,111.904255 C43.6622222,110.33617 43.6622222,108.482979 44.5155556,106.914894 L52.0533333,93.9425532 Z M46.5066667,85.6744681 C47.36,87.2425532 47.36,89.0957447 46.5066667,90.6638298 L38.9688889,103.63617 C38.1155556,105.204255 36.4088889,106.202128 34.56,106.202128 L19.6266667,106.202128 C17.7777778,106.202128 16.2133333,105.204255 15.2177778,103.63617 L7.68,90.6638298 C6.82666667,89.0957447 6.82666667,87.2425532 7.68,85.6744681 L15.2177778,72.7021277 C16.0711111,71.1340426 17.7777778,70.1361702 19.6266667,70.1361702 L34.56,70.1361702 C36.4088889,70.1361702 37.9733333,71.1340426 38.9688889,72.7021277 L46.5066667,85.6744681 Z M46.5066667,48.3255319 L38.9688889,61.2978723 C38.1155556,62.8659574 36.4088889,63.8638298 34.56,63.8638298 L19.6266667,63.8638298 C17.7777778,63.8638298 16.2133333,62.8659574 15.2177778,61.2978723 L7.68,48.3255319 C6.82666667,46.7574468 6.82666667,44.9042553 7.68,43.3361702 L15.2177778,30.3638298 C16.0711111,28.7957447 17.7777778,27.7978723 19.6266667,27.7978723 L34.56,27.7978723 C36.4088889,27.7978723 37.9733333,28.7957447 38.9688889,30.3638298 L46.5066667,43.3361702 C47.36,44.9042553 47.36,46.7574468 46.5066667,48.3255319 Z M75.6622222,40.0574468 C74.8088889,41.6255319 73.1022222,42.6234043 71.2533333,42.6234043 L56.4622222,42.6234043 C54.6133333,42.6234043 53.0488889,41.6255319 52.0533333,40.0574468 L44.5155556,27.0851064 C43.6622222,25.5170213 43.6622222,23.6638298 44.5155556,22.0957447 L52.0533333,9.12340426 C52.9066667,7.55531915 54.6133333,6.55744681 56.4622222,6.55744681 L71.3955556,6.55744681 C73.2444444,6.55744681 74.8088889,7.55531915 75.8044444,9.12340426 L83.3422222,22.0957447 C84.1955556,23.6638298 84.1955556,25.5170213 83.3422222,27.0851064 L75.6622222,40.0574468 Z M120.177778,48.3255319 L112.64,61.2978723 C111.786667,62.8659574 110.08,63.8638298 108.231111,63.8638298 L93.44,63.8638298 C91.5911111,63.8638298 90.0266667,62.8659574 89.0311111,61.2978723 L81.4933333,48.3255319 C80.64,46.7574468 80.64,44.9042553 81.4933333,43.3361702 L89.0311111,30.3638298 C89.8844444,28.7957447 91.5911111,27.7978723 93.44,27.7978723 L108.373333,27.7978723 C110.222222,27.7978723 111.786667,28.7957447 112.782222,30.3638298 L120.32,43.3361702 C121.031111,44.9042553 121.031111,46.7574468 120.177778,48.3255319 Z"
                      id="Shape"></path>
            </g>
        </g>
    </g>
</svg>