<?xml version="1.0" encoding="UTF-8"?>
<svg width="228px" height="240px" viewBox="0 0 228 240" version="1.1" xmlns="http://www.w3.org/2000/svg"
>
    <!-- Generator: Sketch 52.1 (67048) - http://www.bohemiancoding.com/sketch -->
    <title>noun_Honeycomb_918777</title>
    <desc>Created with Sketch.</desc>
    <g id="Page-1" stroke="none" stroke-width="1" fill="none" fill-rule="evenodd" opacity="0.05">
        <g id="honeycomb001_landing" transform="translate(-786.000000, -161.000000)" fill="#FFFFFF" fill-rule="nonzero">
            <g id="noun_Honeycomb_918777" transform="translate(785.000000, 161.000000)">
                <path d="M225.911111,71.7446809 L212.366667,48.5106383 C208.788889,42.1276596 201.888889,38.2978723 194.733333,38.2978723 L167.9,38.2978723 C165.6,38.2978723 163.555556,38.8085106 161.511111,39.3191489 C161,37.2765957 160.233333,35.4893617 159.466667,33.7021277 L145.922222,10.4680851 C142.344444,4.08510638 135.444444,0.255319149 128.288889,0.255319149 L101.455556,0.255319149 C94.0444444,0.255319149 87.4,4.08510638 83.8222222,10.4680851 L70.2777778,33.7021277 C69.2555556,35.4893617 68.4888889,37.2765957 68.2333333,39.0638298 C66.4444444,38.5531915 64.4,38.2978723 62.3555556,38.2978723 L35.2666667,38.2978723 C27.8555556,38.2978723 21.2111111,42.1276596 17.6333333,48.5106383 L4.08888889,71.7446809 C0.511111111,78.1276596 0.511111111,85.787234 4.08888889,92.1702128 L17.6333333,115.404255 C18.6555556,117.191489 19.9333333,118.723404 21.2111111,120 C19.9333333,121.276596 18.6555556,122.808511 17.6333333,124.595745 L4.08888889,147.829787 C0.511111111,154.212766 0.511111111,161.87234 4.08888889,168.255319 L17.6333333,191.489362 C21.2111111,197.87234 28.1111111,201.702128 35.2666667,201.702128 L62.1,201.702128 C64.1444444,201.702128 66.1888889,201.446809 67.9777778,200.93617 C68.4888889,202.723404 69,204.510638 70.0222222,206.297872 L83.5666667,229.531915 C87.1444444,235.914894 94.0444444,239.744681 101.2,239.744681 L128.033333,239.744681 C135.444444,239.744681 142.088889,235.914894 145.666667,229.531915 L159.211111,206.297872 C162.788889,199.914894 162.788889,192.255319 159.211111,185.87234 L145.666667,162.638298 C142.088889,156.255319 135.188889,152.425532 128.033333,152.425532 L101.455556,152.425532 C99.4111111,152.425532 97.3666667,152.680851 95.5777778,153.191489 C95.0666667,151.404255 94.5555556,149.617021 93.5333333,147.829787 L79.9888889,124.595745 C78.9666667,122.808511 77.6888889,121.276596 76.4111111,120 C77.6888889,118.723404 78.9666667,117.191489 79.9888889,115.404255 L93.5333333,92.1702128 C94.5555556,90.3829787 95.3222222,88.5957447 95.5777778,86.8085106 C97.3666667,87.3191489 99.4111111,87.5744681 101.455556,87.5744681 L128.288889,87.5744681 C130.588889,87.5744681 132.633333,87.0638298 134.677778,86.5531915 C135.188889,88.5957447 135.955556,90.3829787 136.722222,92.1702128 L150.266667,115.404255 C153.844444,121.787234 160.744444,125.617021 167.9,125.617021 L194.733333,125.617021 C202.144444,125.617021 208.788889,121.787234 212.366667,115.404255 L225.911111,92.1702128 C229.488889,86.0425532 229.488889,78.1276596 225.911111,71.7446809 Z M93.5333333,168.255319 C95.0666667,165.446809 98.1333333,163.659574 101.455556,163.659574 L128.288889,163.659574 C131.611111,163.659574 134.422222,165.446809 136.211111,168.255319 L149.755556,191.489362 C151.288889,194.297872 151.288889,197.617021 149.755556,200.425532 L136.211111,223.659574 C134.677778,226.468085 131.611111,228.255319 128.288889,228.255319 L101.455556,228.255319 C98.1333333,228.255319 95.3222222,226.468085 93.5333333,223.659574 L79.9888889,200.425532 C78.4555556,197.617021 78.4555556,194.297872 79.9888889,191.489362 L93.5333333,168.255319 Z M83.5666667,153.446809 C85.1,156.255319 85.1,159.574468 83.5666667,162.382979 L70.0222222,185.617021 C68.4888889,188.425532 65.4222222,190.212766 62.1,190.212766 L35.2666667,190.212766 C31.9444444,190.212766 29.1333333,188.425532 27.3444444,185.617021 L13.8,162.382979 C12.2666667,159.574468 12.2666667,156.255319 13.8,153.446809 L27.3444444,130.212766 C28.8777778,127.404255 31.9444444,125.617021 35.2666667,125.617021 L62.1,125.617021 C65.4222222,125.617021 68.2333333,127.404255 70.0222222,130.212766 L83.5666667,153.446809 Z M83.5666667,86.5531915 L70.0222222,109.787234 C68.4888889,112.595745 65.4222222,114.382979 62.1,114.382979 L35.2666667,114.382979 C31.9444444,114.382979 29.1333333,112.595745 27.3444444,109.787234 L13.8,86.5531915 C12.2666667,83.7446809 12.2666667,80.4255319 13.8,77.6170213 L27.3444444,54.3829787 C28.8777778,51.5744681 31.9444444,49.787234 35.2666667,49.787234 L62.1,49.787234 C65.4222222,49.787234 68.2333333,51.5744681 70.0222222,54.3829787 L83.5666667,77.6170213 C85.1,80.4255319 85.1,83.7446809 83.5666667,86.5531915 Z M135.955556,71.7446809 C134.422222,74.5531915 131.355556,76.3404255 128.033333,76.3404255 L101.455556,76.3404255 C98.1333333,76.3404255 95.3222222,74.5531915 93.5333333,71.7446809 L79.9888889,48.5106383 C78.4555556,45.7021277 78.4555556,42.3829787 79.9888889,39.5744681 L93.5333333,16.3404255 C95.0666667,13.5319149 98.1333333,11.7446809 101.455556,11.7446809 L128.288889,11.7446809 C131.611111,11.7446809 134.422222,13.5319149 136.211111,16.3404255 L149.755556,39.5744681 C151.288889,42.3829787 151.288889,45.7021277 149.755556,48.5106383 L135.955556,71.7446809 Z M215.944444,86.5531915 L202.4,109.787234 C200.866667,112.595745 197.8,114.382979 194.477778,114.382979 L167.9,114.382979 C164.577778,114.382979 161.766667,112.595745 159.977778,109.787234 L146.433333,86.5531915 C144.9,83.7446809 144.9,80.4255319 146.433333,77.6170213 L159.977778,54.3829787 C161.511111,51.5744681 164.577778,49.787234 167.9,49.787234 L194.733333,49.787234 C198.055556,49.787234 200.866667,51.5744681 202.655556,54.3829787 L216.2,77.6170213 C217.477778,80.4255319 217.477778,83.7446809 215.944444,86.5531915 Z"
                      id="Shape"></path>
            </g>
        </g>
    </g>
</svg>