<?xml version="1.0" encoding="utf-8"?>
<!-- Generator: Adobe Illustrator 19.0.0, SVG Export Plug-In . SVG Version: 6.00 Build 0)  -->
<svg version="1.1" id="Layer_1" xmlns="http://www.w3.org/2000/svg" x="0px"
     y="0px"
     viewBox="0 0 35 35" style="enable-background:new 0 0 35 35;" xml:space="preserve">
<style type="text/css">
	.st0{fill:#575555;}
</style>
    <path id="XMLID_2_" class="st0" d="M30.1,6.6H4.9c-1.4,0-2.6,1.2-2.6,2.6v17.3c0,0.8,0.4,1.5,0.9,2c0,0,0,0,0.1,0.1
	c0.4,0.4,1,0.6,1.6,0.6h25.2c1.4,0,2.6-1.2,2.6-2.6V9.2C32.7,7.8,31.5,6.6,30.1,6.6z M4.9,8.8h25.2c0.2,0,0.4,0.2,0.4,0.4v15.9
	L26,20.6c-0.2-0.2-0.5-0.3-0.8-0.3c-0.3,0-0.6,0.1-0.8,0.3l-5.3,5.4L12.5,13c-0.2-0.4-0.6-0.6-1-0.6c-0.4,0-0.8,0.2-1,0.6l-6,11.3
	v-15C4.5,9,4.7,8.8,4.9,8.8z M29,26.9h-7.6l3.7-3.9L29,26.9z M17,26.9H5.6l5.9-11L17,26.9z"/>
</svg>
