<?xml version="1.0" encoding="UTF-8"?>
<svg width="16px" height="16px" viewBox="0 0 16 16" version="1.1" xmlns="http://www.w3.org/2000/svg"
>
    <!-- Generator: Sketch 52.1 (67048) - http://www.bohemiancoding.com/sketch -->
    <title>instagram icon</title>
    <desc>Created with Sketch.</desc>
    <g id="Page-1" stroke="none" stroke-width="1" fill="none" fill-rule="evenodd">
        <g id="honeycomb007_02_profileExperience" transform="translate(-772.000000, -538.000000)" fill="#FFFFFF"
           fill-rule="nonzero">
            <g id="Group-16" transform="translate(644.000000, 460.000000)">
                <g id="Group-3-Copy" transform="translate(120.000000, 70.000000)">
                    <g id="instagram-icon" transform="translate(8.800000, 8.800000)">
                        <path d="M10,0 L4.4,0 C1.9699471,0 3.55271368e-16,1.9699471 0,4.4 L0,10 C-1.77635684e-15,12.4300529 1.9699471,14.4 4.4,14.4 L10,14.4 C11.1669526,14.4 12.2861098,13.9364299 13.1112698,13.1112698 C13.9364299,12.2861098 14.4,11.1669526 14.4,10 L14.4,4.4 C14.4,1.9699471 12.4300529,0 10,0 Z M13.2,10 C13.1979984,11.7664815 11.7664815,13.1979984 10,13.2 L4.4,13.2 C2.63351853,13.1979984 1.20200155,11.7664815 1.2,10 L1.2,4.4 C1.20198395,2.63351123 2.63351123,1.20198395 4.4,1.2 L10,1.2 C11.7664888,1.20198395 13.198016,2.63351123 13.2,4.4 L13.2,10 Z"
                              id="Shape"></path>
                        <path d="M7.2,3.6 C5.2117749,3.6 3.6,5.2117749 3.6,7.2 C3.6,9.1882251 5.2117749,10.8 7.2,10.8 C9.1882251,10.8 10.8,9.1882251 10.8,7.2 C10.8,5.2117749 9.1882251,3.6 7.2,3.6 Z M7.2,9.6 C5.8745166,9.6 4.8,8.5254834 4.8,7.2 C4.8,5.8745166 5.8745166,4.8 7.2,4.8 C8.5254834,4.8 9.6,5.8745166 9.6,7.2 C9.59850104,8.52486201 8.52486201,9.59850104 7.2,9.6 Z"
                              id="Shape"></path>
                        <circle id="Oval" cx="10.960008" cy="3.439992" r="1"></circle>
                    </g>
                </g>
            </g>
        </g>
    </g>
</svg>