<?xml version="1.0" encoding="UTF-8"?>
<svg width="22px" height="20px" viewBox="0 0 22 20" version="1.1" xmlns="http://www.w3.org/2000/svg"
>
    <!-- Generator: Sketch 52.1 (67048) - http://www.bohemiancoding.com/sketch -->
    <title>Слой_249</title>
    <desc>Created with Sketch.</desc>
    <g id="Page-1" stroke="none" stroke-width="1" fill="none" fill-rule="evenodd">
        <g id="honeycomb007_01_profilePosts" transform="translate(-460.000000, -1296.000000)" fill="#D5D7DA">
            <g id="Group-5" transform="translate(436.000000, 1016.000000)">
                <g id="Group-7" transform="translate(24.000000, 280.000000)">
                    <g id="Слой_249">
                        <path d="M16.6052174,0.19047619 C14.3143478,0.19047619 12.4826087,1.92380952 11.3443478,3.07142857 C10.1821739,1.93333333 8.31695652,0.19047619 6.03086957,0.19047619 C2.68304348,0.19047619 0.358695652,2.53809524 0.358695652,5.9047619 C0.358695652,13.2142857 9.97652174,19.2380952 10.4021739,19.4809524 C10.8662764,19.7685009 11.4541584,19.7685009 11.9182609,19.4809524 C12.3247826,19.2285714 21.8995652,13.1761905 21.8995652,5.90952381 C21.866087,2.38095238 19.8526087,0.19047619 16.6052174,0.19047619 Z M11.1052174,18.2857143 C11.1052174,18.2857143 1.76,12.5238095 1.76,5.9047619 C1.76,3.34761905 3.42913043,1.61904762 5.9973913,1.61904762 C8.56565217,1.61904762 10.8469565,4.95238095 11.3252174,4.95238095 C11.8034783,4.95238095 14.0178261,1.61904762 16.586087,1.61904762 C19.1543478,1.61904762 20.4121739,3.34761905 20.4121739,5.9047619 C20.4313043,12.4619048 11.1052174,18.2857143 11.1052174,18.2857143 Z"
                              id="Shape"></path>
                    </g>
                </g>
            </g>
        </g>
    </g>
</svg>