<?xml version="1.0" encoding="utf-8"?>
<!-- Generator: Adobe Illustrator 19.0.0, SVG Export Plug-In . SVG Version: 6.00 Build 0)  -->
<svg version="1.1" id="Layer_1" xmlns="http://www.w3.org/2000/svg" x="0px"
     y="0px"
     viewBox="0 0 19 19" style="enable-background:new 0 0 19 19;" xml:space="preserve">
<style type="text/css">
	.st0{fill:#FFFFFF;}
</style>
    <g id="Page-1">
	<g id="honecomb004_05_onboard5" transform="translate(-560.000000, -510.000000)">
		<g id="Group-5" transform="translate(337.000000, 217.000000)">
			<g id="Rectangle">
				<g id="Group-6_11_" transform="translate(52.000000, 251.000000)">
					<g id="Group_11_" transform="translate(199.000000, 51.000000)">
						<g id="linkedin-icon_11_" transform="translate(26.000000, 22.000000)">
							<path id="XMLID_60_" class="st0" d="M-53.7-24.7h3.9V-12h-3.9V-24.7z M-51.7-31c1.3,0,2.3,1,2.3,2.3s-1,2.3-2.3,2.3
								c-1.3,0-2.3-1-2.3-2.3S-53-31-51.7-31z"/>
                            <path id="XMLID_59_" class="st0" d="M-47.3-24.7h3.8v1.7h0.1c0.5-1,1.8-2,3.7-2c4,0,4.7,2.6,4.7,6v7h-3.9v-6.2
								c0-1.5,0-3.4-2-3.4c-2,0-2.4,1.6-2.4,3.3v6.3h-3.9L-47.3-24.7L-47.3-24.7z"/>
						</g>
					</g>
				</g>
			</g>
		</g>
	</g>
</g>
</svg>
