<?xml version="1.0" encoding="UTF-8"?>
<svg width="16px" height="16px" viewBox="0 0 16 16" version="1.1" xmlns="http://www.w3.org/2000/svg"
>
    <!-- Generator: Sketch 52.1 (67048) - http://www.bohemiancoding.com/sketch -->
    <title>linkedin icon</title>
    <desc>Created with Sketch.</desc>
    <g id="Page-1" stroke="none" stroke-width="1" fill="none" fill-rule="evenodd">
        <g id="honeycomb007_02_profileExperience" transform="translate(-732.000000, -538.000000)" fill="#FFFFFF"
           fill-rule="nonzero">
            <g id="Group-16" transform="translate(644.000000, 460.000000)">
                <g id="Group-15" transform="translate(80.000000, 70.000000)">
                    <g id="linkedin-icon" transform="translate(8.800000, 8.800000)">
                        <path d="M0.263076923,5.04710425 L3.40830769,5.04710425 L3.40830769,15.2 L0.263076923,15.2 L0.263076923,5.04710425 Z M1.84153846,0 C2.84707692,0 3.66553846,0.821621622 3.66553846,1.83104247 C3.66553846,2.84046332 2.84707692,3.66208494 1.84153846,3.66208494 C0.830153846,3.66208494 0.0175384615,2.84046332 0.0175384615,1.83104247 C0.0175384615,0.821621622 0.830153846,0 1.84153846,0 Z"
                              id="XMLID_195_"></path>
                        <path d="M5.38430769,5.04710425 L8.39507692,5.04710425 L8.39507692,6.43799228 L8.436,6.43799228 C8.85692308,5.63984556 9.88,4.80061776 11.4116923,4.80061776 C14.592,4.80061776 15.1824615,6.90162162 15.1824615,9.63644788 L15.1824615,15.2 L12.0430769,15.2 L12.0430769,10.2644015 C12.0430769,9.08478764 12.0255385,7.57065637 10.412,7.57065637 C8.77507692,7.57065637 8.52953846,8.85590734 8.52953846,10.1763707 L8.52953846,15.2 L5.39015385,15.2 L5.39015385,5.04710425 L5.38430769,5.04710425 Z"
                              id="XMLID_192_"></path>
                    </g>
                </g>
            </g>
        </g>
    </g>
</svg>