<?xml version="1.0" encoding="UTF-8"?>
<svg width="18px" height="22px" viewBox="0 0 18 22" version="1.1" xmlns="http://www.w3.org/2000/svg"
>
    <!-- Generator: Sketch 52.1 (67048) - http://www.bohemiancoding.com/sketch -->
    <title>Location</title>
    <desc>Created with Sketch.</desc>
    <g id="Page-1" stroke="none" stroke-width="1" fill="none" fill-rule="evenodd">
        <g id="honeycomb007_02_profileExperience" transform="translate(-648.000000, -426.000000)" fill="#FFCCB3">
            <g id="Group" transform="translate(648.000000, 426.000000)">
                <g id="Location">
                    <path d="M9.10702703,0.195555556 C4.32152009,0.316451446 0.470572078,4.18641649 0.35027027,8.99555556 C0.431460803,10.4174437 0.821692658,11.8041844 1.49351351,13.0582222 L1.56162162,13.1804444 C6.85459459,21.7066667 8.43567568,21.7066667 9.10702703,21.7066667 C10.1578378,21.7066667 11.2913514,20.9635556 13.9718919,17.1746667 C15.3778378,15.2191111 16.5843243,13.2635556 16.632973,13.1755556 L16.7010811,13.0582222 C17.3796827,11.8057663 17.776581,10.4189409 17.8637838,8.99555556 C17.743482,4.18641649 13.892534,0.316451446 9.10702703,0.195555556 L9.10702703,0.195555556 Z M15.4313514,12.4177778 C15.4313514,12.4177778 10.5664865,20.24 9.10702703,20.24 C7.64756757,20.24 2.7827027,12.4177778 2.7827027,12.4177778 C2.21713365,11.3606767 1.88525378,10.1933609 1.80972973,8.99555556 C1.80972973,4.94546739 5.07684101,1.66222222 9.10702703,1.66222222 C13.137213,1.66222222 16.4043243,4.94546739 16.4043243,8.99555556 C16.3242869,10.1944685 15.9874109,11.3618463 15.4167568,12.4177778 L15.4313514,12.4177778 Z"
                          id="Shape"></path>
                    <path d="M9.10702703,4.59555556 C6.95759449,4.59555556 5.21513514,6.34661965 5.21513514,8.50666667 C5.21513514,10.6667137 6.95759449,12.4177778 9.10702703,12.4177778 C11.2564596,12.4177778 12.9989189,10.6667137 12.9989189,8.50666667 C12.9989189,6.34661965 11.2564596,4.59555556 9.10702703,4.59555556 Z M9.10702703,10.9511111 C7.76363169,10.9511111 6.67459459,9.85669606 6.67459459,8.50666667 C6.67459459,7.15663728 7.76363169,6.06222222 9.10702703,6.06222222 C10.4504224,6.06222222 11.5394595,7.15663728 11.5394595,8.50666667 C11.5394595,9.85669606 10.4504224,10.9511111 9.10702703,10.9511111 Z"
                          id="Shape"></path>
                </g>
            </g>
        </g>
    </g>
</svg>