<?xml version="1.0" encoding="UTF-8"?>
<svg width="24px" height="25px" viewBox="0 0 24 25" version="1.1" xmlns="http://www.w3.org/2000/svg"
>
    <!-- Generator: Sketch 52.1 (67048) - http://www.bohemiancoding.com/sketch -->
    <title>Search</title>
    <desc>Created with Sketch.</desc>
    <g id="Page-1" stroke="none" stroke-width="1" fill="none" fill-rule="evenodd">
        <g id="honeycomb007_02_profileExperience" transform="translate(-561.000000, -28.000000)" fill="#FFFFFF">
            <g id="search" transform="translate(300.000000, 17.000000)">
                <g id="Search" transform="translate(261.000000, 11.000000)">
                    <path d="M23.418,22.9702381 L17.874,17.5 C21.7585735,13.6224231 21.8769424,7.39797718 18.1425586,3.37780297 C14.4081749,-0.642371236 8.14517012,-1.03280699 3.93287824,2.49197142 C-0.279413645,6.01674982 -0.947405144,12.2069323 2.41732044,16.5364305 C5.78204602,20.8659288 11.9864298,21.7995965 16.494,18.6547619 L22.146,24.2619048 C22.5006117,24.5897129 23.0532117,24.5800403 23.3959462,24.240026 C23.7386807,23.9000116 23.7484306,23.3517973 23.418,23 L23.418,22.9702381 Z M2.232,10.3571429 C2.232,5.75476994 5.9928081,2.02380952 10.632,2.02380952 C15.2711919,2.02380952 19.032,5.75476994 19.032,10.3571429 C19.032,14.9595158 15.2711919,18.6904762 10.632,18.6904762 C5.9928081,18.6904762 2.232,14.9595158 2.232,10.3571429 Z"
                          id="Shape"></path>
                </g>
            </g>
        </g>
    </g>
</svg>