<?xml version="1.0" encoding="UTF-8"?>
<svg width="16px" height="14px" viewBox="0 0 16 14" version="1.1" xmlns="http://www.w3.org/2000/svg"
>
    <!-- Generator: Sketch 52.1 (67048) - http://www.bohemiancoding.com/sketch -->
    <title>twitter icon</title>
    <desc>Created with Sketch.</desc>
    <g id="Page-1" stroke="none" stroke-width="1" fill="none" fill-rule="evenodd">
        <g id="honeycomb007_02_profileExperience" transform="translate(-692.000000, -539.000000)" fill="#FFFFFF"
           fill-rule="nonzero">
            <g id="Group-16" transform="translate(644.000000, 460.000000)">
                <g id="Group-14" transform="translate(40.000000, 70.000000)">
                    <g id="twitter-icon" transform="translate(8.000000, 9.600000)">
                        <path d="M16,1.51519209 C15.4118101,1.77257331 14.7787995,1.94618574 14.1146094,2.0238797 C14.7927654,1.62421942 15.3127499,0.99115752 15.5579644,0.235959434 C14.9236546,0.606524454 14.2214644,0.875415896 13.4734791,1.02057251 C12.874896,0.392626268 12.0216795,0 11.0775227,0 C9.2648844,0 7.79522157,1.44677025 7.79522157,3.23149323 C7.79522157,3.48439826 7.82412764,3.73090873 7.88031586,3.96782734 C5.15210198,3.83290203 2.73308568,2.54663536 1.11402066,0.591497227 C0.831455656,1.06853175 0.669711548,1.62357996 0.669711548,2.2163561 C0.669711548,3.33732327 1.24913221,4.32656242 2.12995554,4.90590998 C1.59210766,4.88896438 1.08576416,4.74348803 0.643078984,4.50145377 C0.642754197,4.51488235 0.642754197,4.52863066 0.642754197,4.54237898 C0.642754197,6.1077684 1.77431338,7.4135385 3.27613016,7.71088574 C3.00071047,7.78442324 2.71067535,7.82406954 2.4112214,7.82406954 C2.19946004,7.82406954 1.99386964,7.80392666 1.79347583,7.765879 C2.21147718,9.04958784 3.42358362,9.98415344 4.85979335,10.0100514 C3.73635386,10.8768347 2.3212553,11.3935155 0.783062339,11.3935155 C0.518360636,11.3935155 0.256906806,11.3781686 0,11.3481141 C1.45309867,12.2654144 3.17836916,12.8 5.03193066,12.8 C11.0700526,12.8 14.3715162,7.87618524 14.3715162,3.60589499 C14.3715162,3.46585402 14.368593,3.32613278 14.3624221,3.18737074 C15.0035524,2.73271719 15.5602379,2.16328121 16,1.51519209 Z"
                              id="Shape"></path>
                    </g>
                </g>
            </g>
        </g>
    </g>
</svg>