<?xml version="1.0" encoding="UTF-8"?>
<svg width="17px" height="16px" viewBox="0 0 17 16" version="1.1" xmlns="http://www.w3.org/2000/svg"
>
    <!-- Generator: Sketch 52.1 (67048) - http://www.bohemiancoding.com/sketch -->
    <title>User Copy</title>
    <desc>Created with Sketch.</desc>
    <g id="Page-1" stroke="none" stroke-width="1" fill="none" fill-rule="evenodd">
        <g id="honeycomb008_01_settings" transform="translate(-277.000000, -107.000000)" fill="#333C4E">
            <g id="User-Copy" transform="translate(277.000000, 107.000000)">
                <path d="M8.38666667,10.0102564 C10.6169048,10.0102564 12.4342857,7.80307692 12.4342857,5.08717949 C12.4342857,2.37128205 10.6169048,0.164102564 8.38666667,0.164102564 C6.15642857,0.164102564 4.33904762,2.37128205 4.33904762,5.08717949 C4.33904762,7.80307692 6.16047619,10.0102564 8.38666667,10.0102564 Z M8.38666667,1.39487179 C9.95309524,1.39487179 11.22,3.03589744 11.22,5.08717949 C11.22,7.13846154 9.95309524,8.77948718 8.38666667,8.77948718 C6.8202381,8.77948718 5.55333333,7.13846154 5.55333333,5.08717949 C5.55333333,3.03589744 6.8202381,1.39487179 8.38666667,1.39487179 Z"
                      id="Shape"></path>
                <path d="M12.0902381,9.6 C11.7549224,9.56601328 11.4559126,9.81397864 11.422381,10.1538462 C11.3888494,10.4937137 11.6334938,10.7967824 11.9688095,10.8307692 C13.8517707,11.0550325 15.3105789,12.6060231 15.4416667,14.5230769 L1.33166667,14.5230769 C1.47514585,12.6115873 2.92763782,11.0673121 4.80452381,10.8307692 C5.13983955,10.7967825 5.38448396,10.4937137 5.35095238,10.1538462 C5.31742081,9.81397862 5.01841098,9.56601325 4.68309524,9.6 C4.63857143,9.6 0.089047619,10.1251282 0.089047619,15.134359 C0.089047619,15.4742265 0.360874735,15.7497436 0.696190476,15.7497436 L16.0771429,15.7497436 C16.4124586,15.7497436 16.6842857,15.4742265 16.6842857,15.134359 C16.6842857,10.1251282 12.1347619,9.6 12.0902381,9.6 Z"
                      id="Shape"></path>
            </g>
        </g>
    </g>
</svg>