<?xml version="1.0" encoding="UTF-8"?>
<svg width="22px" height="16px" viewBox="0 0 22 16" version="1.1" xmlns="http://www.w3.org/2000/svg"
>

    <g id="Page-1" stroke="none" stroke-width="1" fill="none" fill-rule="evenodd">
        <g id="honeycomb007_02_profileExperience" transform="translate(-598.000000, -954.000000)" fill="#333C4E">
            <g id="Group" transform="translate(598.000000, 954.000000)">
                <g id="Share">
                    <path d="M20.9095652,6.98181818 L19.4747826,6.98181818 C19.0785783,6.98181818 18.7573913,7.30742927 18.7573913,7.70909091 C18.7573913,8.11075255 19.0785783,8.43636364 19.4747826,8.43636364 L20.9095652,8.43636364 C21.3057695,8.43636364 21.6269565,8.11075255 21.6269565,7.70909091 C21.6269565,7.30742927 21.3057695,6.98181818 20.9095652,6.98181818 Z"
                          id="Shape"></path>
                    <path d="M20.8282609,11.2242424 L19.3934783,10.2545455 C19.063308,10.0322927 18.6179287,10.1234638 18.3986957,10.4581818 C18.1794626,10.7928998 18.269395,11.2444139 18.5995652,11.4666667 L20.0343478,12.4363636 C20.3645181,12.6586163 20.8098973,12.5674452 21.0291303,12.2327272 C21.2483633,11.8980092 21.158431,11.4464952 20.8282609,11.2242424 Z"
                          id="Shape"></path>
                    <path d="M18.9821739,5.25090909 C19.1175337,5.25107493 19.250178,5.21241443 19.3647826,5.13939394 L20.8473913,4.16969697 C21.0714702,4.03388622 21.2050824,3.78538884 21.1962513,3.52087324 C21.1874201,3.25635763 21.03754,3.01758748 20.8049159,2.89744718 C20.5722918,2.77730687 20.2936523,2.79476506 20.0773913,2.9430303 L18.5947826,3.91272727 C18.3231926,4.08574799 18.1979041,4.4205164 18.2879313,4.73262785 C18.3779585,5.0447393 18.6614203,5.25833508 18.9821739,5.25575758 L18.9821739,5.25090909 Z"
                          id="Shape"></path>
                    <path d="M16.1269565,0.193939394 L14.213913,0.193939394 C13.4215045,0.193939394 12.7791304,0.845161576 12.7791304,1.64848485 L12.7791304,1.69212121 L4.5626087,5.04242424 C4.36042473,4.462677 3.82046974,4.07445545 3.21391304,4.07272727 L1.77913043,4.07272727 C0.986721881,4.07272727 0.344347826,4.72394945 0.344347826,5.52727273 L0.344347826,10.3757576 C0.344347826,11.1790808 0.986721881,11.830303 1.77913043,11.830303 L3.21391304,11.830303 C3.81871224,11.8265328 4.35623398,11.4386854 4.55782609,10.8606061 L5.4426087,11.2533333 C5.39297975,11.3525451 5.3667829,11.4620956 5.36608696,11.5733333 C5.33881307,12.870898 6.05217684,14.0680319 7.19782609,14.6472727 C7.61978895,14.8598043 8.08491941,14.9693868 8.55608696,14.9672727 C9.40727769,14.9571594 10.2261022,14.635107 10.8613043,14.0606061 C10.9532539,13.9781673 11.0224758,13.8729044 11.0621739,13.7551515 L12.8078261,14.5357576 C12.9442075,15.2130903 13.5320059,15.699535 14.213913,15.6993939 L16.1269565,15.6993939 C16.9193651,15.6993939 17.5617391,15.0481718 17.5617391,14.2448485 L17.5617391,1.63878788 C17.5564812,0.83925409 16.9156446,0.193921626 16.1269565,0.193939394 Z M3.21391304,10.3757576 L1.77913043,10.3757576 L1.77913043,5.52727273 L3.21391304,5.52727273 L3.21391304,10.3757576 Z M12.7791304,13.0424242 L4.64869565,9.36727273 L4.64869565,6.55030303 L12.7791304,3.20969697 L12.7791304,13.0424242 Z M7.83869565,13.3624242 C7.2692031,13.0793849 6.88407595,12.5184827 6.82,11.8787879 L9.68956522,13.1539394 C9.15341116,13.5530297 8.44818768,13.6324671 7.83869565,13.3624242 L7.83869565,13.3624242 Z M16.1269565,14.2545455 L14.213913,14.2545455 L14.213913,1.64848485 L16.1269565,1.64848485 L16.1269565,14.2545455 Z"
                          id="Shape"></path>
                </g>
            </g>
        </g>
    </g>
</svg>
