<svg xmlns="http://www.w3.org/2000/svg" width="17.969" height="18" viewBox="0 0 17.969 18">
  <metadata><?xpacket begin="﻿" id="W5M0MpCehiHzreSzNTczkc9d"?>
<x:xmpmeta xmlns:x="adobe:ns:meta/" x:xmptk="Adobe XMP Core 5.6-c138 79.159824, 2016/09/14-01:09:01        ">
   <rdf:RDF xmlns:rdf="http://www.w3.org/1999/02/22-rdf-syntax-ns#">
      <rdf:Description rdf:about=""/>
   </rdf:RDF>
</x:xmpmeta>
                                                                                                    
                                                                                                    
                                                                                                    
                                                                                                    
                                                                                                    
                                                                                                    
                                                                                                    
                                                                                                    
                                                                                                    
                                                                                                    
                                                                                                    
                                                                                                    
                                                                                                    
                                                                                                    
                                                                                                    
                                                                                                    
                                                                                                    
                                                                                                    
                                                                                                    
                                                                                                    
                           
<?xpacket end="w"?></metadata>
<defs>
    <style>
      .cls-1 {
        fill: #555;
        fill-rule: evenodd;
        mix-blend-mode: luminosity;
      }
    </style>
  </defs>
  <path id="profile_round" class="cls-1" d="M127.942,273.863a8.559,8.559,0,0,0-5.5-6.263,5.342,5.342,0,0,0,1.994-5.042,5.52,5.52,0,0,0-10.954.837,5.346,5.346,0,0,0,2.058,4.205,8.559,8.559,0,0,0-5.5,6.263,1.8,1.8,0,0,0,1.808,2.127h14.294A1.8,1.8,0,0,0,127.942,273.863ZM115.314,263.4a3.674,3.674,0,1,1,3.673,3.6A3.64,3.64,0,0,1,115.314,263.4Zm9.576,10.8H113.084a0.9,0.9,0,0,1-.864-1.2,7.556,7.556,0,0,1,13.534,0A0.9,0.9,0,0,1,124.89,274.191Z" transform="translate(-110 -258)"/>
</svg>
